<svg width="100%" viewBox="0 0 680 420" xmlns="http://www.w3.org/2000/svg">
<defs>
  <style>
    .star1{animation:twinkle 2.5s ease-in-out infinite;}
    .star2{animation:twinkle 3.1s ease-in-out infinite 0.8s;}
    .star3{animation:twinkle 2.2s ease-in-out infinite 1.4s;}
    @keyframes twinkle{0%,100%{opacity:0.9;}50%{opacity:0.15;}}
    .code-scroll{animation:codeScroll 6s linear infinite;}
    @keyframes codeScroll{0%{transform:translateY(0);}100%{transform:translateY(-80px);}}
    .cursor{animation:blink 0.7s step-end infinite;}
    @keyframes blink{0%,100%{opacity:1;}50%{opacity:0;}}
    .cs1{animation:steam 2.2s ease-in-out infinite;}
    .cs2{animation:steam 2.2s ease-in-out infinite 0.9s;}
    .cs3{animation:steam 2.2s ease-in-out infinite 1.6s;}
    @keyframes steam{0%,100%{opacity:0;transform:translateY(0);}40%{opacity:0.55;transform:translateY(-14px);}80%{opacity:0;transform:translateY(-26px);}}
    .sglow{animation:glowPulse 3s ease-in-out infinite;}
    @keyframes glowPulse{0%,100%{opacity:0.18;}50%{opacity:0.30;}}
    .notify{animation:notifPop 5s ease-in-out infinite 2s;}
    @keyframes notifPop{0%,15%,100%{opacity:0;transform:translateY(6px);}20%,80%{opacity:1;transform:translateY(0);}85%{opacity:0;transform:translateY(-4px);}}
    .tabblink{animation:tabActive 4s ease-in-out infinite;}
    @keyframes tabActive{0%,100%{fill:#1f2d3d;}48%{fill:#1f2d3d;}52%{fill:#253545;}56%{fill:#1f2d3d;}}
  </style>
  <clipPath id="screenArea">
    <rect x="188" y="130" width="322" height="166"/>
  </clipPath>
</defs>
<rect width="680" height="420" fill="#0b0d18" rx="14"/>
<circle class="star1" cx="45"  cy="28" r="1.8" fill="#dde8ff"/>
<circle class="star2" cx="110" cy="16" r="1.4" fill="#dde8ff"/>
<circle class="star3" cx="178" cy="34" r="1.8" fill="#c4d0ff"/>
<circle class="star2" cx="510" cy="20" r="1.5" fill="#dde8ff"/>
<circle class="star1" cx="570" cy="38" r="1.8" fill="#dde8ff"/>
<circle class="star3" cx="630" cy="14" r="1.4" fill="#c4d0ff"/>
<circle class="star1" cx="420" cy="22" r="1.6" fill="#dde8ff"/>
<circle class="star3" cx="350" cy="10" r="1.4" fill="#c4d0ff"/>
<circle class="star2" cx="74"  cy="55" r="1.2" fill="#dde8ff"/>
<circle class="star1" cx="596" cy="62" r="1.2" fill="#c4d0ff"/>
<circle cx="72" cy="68" r="30" fill="#1c2040"/>
<circle cx="88" cy="56" r="26" fill="#0b0d18"/>
<circle cx="72" cy="68" r="25" fill="#1a1e3a"/>
<circle cx="62" cy="64" r="4"   fill="#22274a" opacity="0.6"/>
<circle cx="78" cy="76" r="2.5" fill="#22274a" opacity="0.6"/>
<rect x="40"  y="318" width="600" height="28" rx="5" fill="#1c1928"/>
<rect x="40"  y="318" width="600" height="5"  fill="#252232" rx="2"/>
<rect x="110" y="342" width="10"  height="60" rx="3" fill="#14121f"/>
<rect x="560" y="342" width="10"  height="60" rx="3" fill="#14121f"/>
<rect x="0"   y="388" width="680" height="32" fill="#080910"/>
<rect x="148" y="100" width="384" height="225" rx="12" fill="#14121e" stroke="#24223a" stroke-width="2"/>
<rect x="156" y="108" width="368" height="202" rx="8" fill="#080c14"/>
<rect class="sglow" x="156" y="108" width="368" height="202" rx="8" fill="#1a4aaa"/>
<rect x="156" y="108" width="368" height="22" rx="8" fill="#0f1520"/>
<rect x="156" y="118" width="368" height="12"       fill="#0f1520"/>
<circle cx="172" cy="119" r="4.5" fill="#ff5f57"/>
<circle cx="188" cy="119" r="4.5" fill="#febc2e"/>
<circle cx="204" cy="119" r="4.5" fill="#28c840"/>
<rect class="tabblink" x="218" y="111" width="92" height="16" rx="4" fill="#1f2d3d"/>
<text x="264" y="122" fill="#7aa4cc" font-size="8" font-family="monospace" text-anchor="middle">thinkboard/app.js</text>
<rect x="314" y="111" width="72" height="16" rx="4" fill="#151c25"/>
<text x="350" y="122" fill="#4a6070" font-size="8" font-family="monospace" text-anchor="middle">index.css</text>
<rect x="156" y="130" width="32" height="166" fill="#0c1018"/>
<g fill="#3a4558" font-size="8" font-family="monospace" text-anchor="end">
  <text x="182" y="143">1</text><text x="182" y="155">2</text><text x="182" y="167">3</text>
  <text x="182" y="179">4</text><text x="182" y="191">5</text><text x="182" y="203">6</text>
  <text x="182" y="215">7</text><text x="182" y="227">8</text><text x="182" y="239">9</text>
  <text x="182" y="251">10</text><text x="182" y="263">11</text><text x="182" y="275">12</text>
  <text x="182" y="287">13</text>
</g>
<rect x="188" y="248" width="322" height="12" fill="#1a2a1a" opacity="0.5"/>
<g clip-path="url(#screenArea)">
  <g class="code-scroll">
    <text x="192" y="143" font-size="9" font-family="monospace"><tspan fill="#c792ea">import</tspan><tspan fill="#89ddff"> React, </tspan><tspan fill="#c792ea">{ useState }</tspan><tspan fill="#89ddff"> from </tspan><tspan fill="#c3e88d">'react'</tspan><tspan fill="#89ddff">;</tspan></text>
    <text x="192" y="155" font-size="9" font-family="monospace"><tspan fill="#c792ea">import</tspan><tspan fill="#89ddff"> axios </tspan><tspan fill="#c792ea">from</tspan><tspan fill="#c3e88d"> 'axios'</tspan><tspan fill="#89ddff">;</tspan></text>
    <text x="192" y="167" font-size="9" font-family="monospace"><tspan fill="#546e7a">// Thinkboard — note CRUD</tspan></text>
    <text x="192" y="179" font-size="9" font-family="monospace"><tspan fill="#c792ea">const</tspan><tspan fill="#eeffff"> </tspan><tspan fill="#82aaff">NoteApp</tspan><tspan fill="#eeffff"> = () </tspan><tspan fill="#89ddff">=></tspan><tspan fill="#eeffff"> {</tspan></text>
    <text x="192" y="191" font-size="9" font-family="monospace"><tspan fill="#eeffff">  </tspan><tspan fill="#c792ea">const</tspan><tspan fill="#eeffff"> [notes, setNotes] = </tspan><tspan fill="#82aaff">useState</tspan><tspan fill="#eeffff">([]);</tspan></text>
    <text x="192" y="203" font-size="9" font-family="monospace"><tspan fill="#eeffff">  </tspan><tspan fill="#c792ea">const</tspan><tspan fill="#eeffff"> [input, setInput] = </tspan><tspan fill="#82aaff">useState</tspan><tspan fill="#eeffff">(</tspan><tspan fill="#c3e88d">''</tspan><tspan fill="#eeffff">);</tspan></text>
    <text x="192" y="215" font-size="9" font-family="monospace"><tspan fill="#eeffff">  </tspan><tspan fill="#c792ea">const</tspan><tspan fill="#eeffff"> </tspan><tspan fill="#82aaff">addNote</tspan><tspan fill="#eeffff"> = </tspan><tspan fill="#c792ea">async</tspan><tspan fill="#eeffff"> () </tspan><tspan fill="#89ddff">=></tspan><tspan fill="#eeffff"> {</tspan></text>
    <text x="192" y="227" font-size="9" font-family="monospace"><tspan fill="#eeffff">    </tspan><tspan fill="#c792ea">await</tspan><tspan fill="#eeffff"> axios.</tspan><tspan fill="#82aaff">post</tspan><tspan fill="#eeffff">(</tspan><tspan fill="#c3e88d">'/api/notes'</tspan><tspan fill="#eeffff">, {input});</tspan></text>
    <text x="192" y="239" font-size="9" font-family="monospace"><tspan fill="#eeffff">    </tspan><tspan fill="#82aaff">setNotes</tspan><tspan fill="#eeffff">([...notes, input]);</tspan></text>
    <text x="192" y="251" font-size="9" font-family="monospace"><tspan fill="#eeffff">  };</tspan></text>
    <text x="192" y="263" font-size="9" font-family="monospace"><tspan fill="#eeffff">  </tspan><tspan fill="#c792ea">return</tspan><tspan fill="#eeffff"> (</tspan></text>
    <text x="192" y="275" font-size="9" font-family="monospace"><tspan fill="#eeffff">    </tspan><tspan fill="#89ddff">&lt;</tspan><tspan fill="#f07178">div</tspan><tspan fill="#c792ea"> className</tspan><tspan fill="#89ddff">=</tspan><tspan fill="#c3e88d">"app"</tspan><tspan fill="#89ddff">&gt;</tspan></text>
    <text x="192" y="287" font-size="9" font-family="monospace"><tspan fill="#eeffff">      </tspan><tspan fill="#89ddff">&lt;</tspan><tspan fill="#f07178">input</tspan><tspan fill="#c792ea"> value</tspan><tspan fill="#89ddff">={</tspan><tspan fill="#eeffff">input</tspan><tspan fill="#89ddff">}</tspan><tspan fill="#eeffff"> /></tspan></text>
    <text x="192" y="313" font-size="9" font-family="monospace"><tspan fill="#c792ea">import</tspan><tspan fill="#89ddff"> React, </tspan><tspan fill="#c792ea">{ useState }</tspan><tspan fill="#89ddff"> from </tspan><tspan fill="#c3e88d">'react'</tspan><tspan fill="#89ddff">;</tspan></text>
    <text x="192" y="325" font-size="9" font-family="monospace"><tspan fill="#c792ea">import</tspan><tspan fill="#89ddff"> axios </tspan><tspan fill="#c792ea">from</tspan><tspan fill="#c3e88d"> 'axios'</tspan><tspan fill="#89ddff">;</tspan></text>
    <text x="192" y="337" font-size="9" font-family="monospace"><tspan fill="#546e7a">// Thinkboard — note CRUD</tspan></text>
    <text x="192" y="349" font-size="9" font-family="monospace"><tspan fill="#c792ea">const</tspan><tspan fill="#eeffff"> </tspan><tspan fill="#82aaff">NoteApp</tspan><tspan fill="#eeffff"> = () </tspan><tspan fill="#89ddff">=></tspan><tspan fill="#eeffff"> {</tspan></text>
    <text x="192" y="361" font-size="9" font-family="monospace"><tspan fill="#eeffff">  </tspan><tspan fill="#c792ea">const</tspan><tspan fill="#eeffff"> [notes, setNotes] = </tspan><tspan fill="#82aaff">useState</tspan><tspan fill="#eeffff">([]);</tspan></text>
    <text x="192" y="373" font-size="9" font-family="monospace"><tspan fill="#eeffff">  </tspan><tspan fill="#c792ea">const</tspan><tspan fill="#eeffff"> [input, setInput] = </tspan><tspan fill="#82aaff">useState</tspan><tspan fill="#eeffff">(</tspan><tspan fill="#c3e88d">''</tspan><tspan fill="#eeffff">);</tspan></text>
  </g>
</g>
<g clip-path="url(#screenArea)">
  <rect class="cursor" x="210" y="250" width="6" height="10" rx="1" fill="#c792ea"/>
</g>
<rect x="518" y="130" width="5" height="166" rx="2.5" fill="#0f1520"/>
<rect x="518" y="145" width="5" height="44"  rx="2.5" fill="#2a3a50"/>
<rect x="156" y="296" width="368" height="14" fill="#0f1a28"/>
<circle cx="167" cy="303" r="3.5" fill="#3fb950"/>
<text x="175" y="306" fill="#4a7a9b" font-size="7" font-family="monospace">main</text>
<text x="205" y="306" fill="#3a5060" font-size="7" font-family="monospace">JavaScript React</text>
<text x="375" y="306" fill="#3a5060" font-size="7" font-family="monospace">Ln 8, Col 32</text>
<text x="492" y="306" fill="#3a5060" font-size="7" font-family="monospace">Prettier ✓</text>
<rect x="316" y="323" width="48" height="10" rx="3" fill="#100e1a"/>
<rect x="300" y="330" width="80" height="8"  rx="4" fill="#181624"/>
<rect x="188" y="346" width="300" height="44" rx="6" fill="#100e1c"/>
<rect x="192" y="350" width="292" height="36" rx="5" fill="#161424"/>
<g fill="#1e1b30">
  <rect x="197" y="354" width="16" height="10" rx="2"/><rect x="216" y="354" width="16" height="10" rx="2"/>
  <rect x="235" y="354" width="16" height="10" rx="2"/><rect x="254" y="354" width="16" height="10" rx="2"/>
  <rect x="273" y="354" width="16" height="10" rx="2"/><rect x="292" y="354" width="16" height="10" rx="2"/>
  <rect x="311" y="354" width="16" height="10" rx="2"/><rect x="330" y="354" width="16" height="10" rx="2"/>
  <rect x="349" y="354" width="16" height="10" rx="2"/><rect x="368" y="354" width="16" height="10" rx="2"/>
  <rect x="387" y="354" width="16" height="10" rx="2"/><rect x="406" y="354" width="22" height="10" rx="2"/>
  <rect x="197" y="367" width="22" height="10" rx="2"/><rect x="222" y="367" width="16" height="10" rx="2"/>
  <rect x="241" y="367" width="16" height="10" rx="2"/><rect x="260" y="367" width="16" height="10" rx="2"/>
  <rect x="279" y="367" width="16" height="10" rx="2"/><rect x="298" y="367" width="16" height="10" rx="2"/>
  <rect x="317" y="367" width="16" height="10" rx="2"/><rect x="336" y="367" width="16" height="10" rx="2"/>
  <rect x="355" y="367" width="16" height="10" rx="2"/><rect x="374" y="367" width="16" height="10" rx="2"/>
  <rect x="393" y="367" width="35" height="10" rx="2"/>
  <rect x="235" y="380" width="210" height="10" rx="3"/>
</g>
<g fill="#6e40c9" opacity="0.35">
  <rect x="197" y="354" width="16" height="2" rx="1"/><rect x="235" y="354" width="16" height="2" rx="1"/>
  <rect x="311" y="354" width="16" height="2" rx="1"/><rect x="260" y="367" width="16" height="2" rx="1"/>
  <rect x="340" y="380" width="100" height="2" rx="1"/>
</g>
<rect x="514" y="348" width="36" height="50" rx="18" fill="#14121e" stroke="#22203a" stroke-width="1.5"/>
<line x1="532" y1="348" x2="532" y2="368" stroke="#22203a" stroke-width="1.5"/>
<rect x="516" y="350" width="15" height="18" rx="7" fill="#1c1a2e"/>
<rect x="533" y="350" width="15" height="18" rx="7" fill="#1c1a2e"/>
<ellipse cx="532" cy="378" rx="5" ry="8" fill="#1c1a2e"/>
<rect x="570" y="284" width="36" height="36" rx="5" fill="#1e1828"/>
<rect x="572" y="286" width="32" height="32" rx="4" fill="#150f1e"/>
<rect x="573" y="304" width="30" height="8"  rx="2" fill="#3d1e06" opacity="0.9"/>
<path d="M606 293 Q618 293 618 306 Q618 319 606 319" stroke="#1e1828" stroke-width="5" fill="none" stroke-linecap="round"/>
<path class="cs1" d="M581 284 Q578 274 582 266" stroke="#6b5a7a" stroke-width="1.5" fill="none" stroke-linecap="round"/>
<path class="cs2" d="M588 284 Q585 272 589 264" stroke="#6b5a7a" stroke-width="1.5" fill="none" stroke-linecap="round"/>
<path class="cs3" d="M595 284 Q592 274 596 266" stroke="#6b5a7a" stroke-width="1.5" fill="none" stroke-linecap="round"/>
<rect x="498" y="108" width="36" height="32" rx="2" fill="#f5c842" opacity="0.92" transform="rotate(4,516,124)"/>
<text x="502" y="120" fill="#4a3600" font-size="7" font-family="monospace" transform="rotate(4,516,124)">fix auth</text>
<text x="502" y="130" fill="#4a3600" font-size="7" font-family="monospace" transform="rotate(4,516,124)">bug</text>
<rect x="540" y="106" width="34" height="30" rx="2" fill="#a8ff9a" opacity="0.92" transform="rotate(-3,557,121)"/>
<text x="543" y="117" fill="#1a4a00" font-size="7" font-family="monospace" transform="rotate(-3,557,121)">ship</text>
<text x="543" y="127" fill="#1a4a00" font-size="7" font-family="monospace" transform="rotate(-3,557,121)">v2.0</text>
<g class="notify">
  <rect x="430" y="116" width="112" height="36" rx="6" fill="#1a2535" stroke="#2a4060" stroke-width="1"/>
  <circle cx="444" cy="130" r="6" fill="#3fb950"/>
  <text x="454" y="127" fill="#7ee787" font-size="8" font-family="monospace">Build passed</text>
  <text x="454" y="138" fill="#4a7060" font-size="7" font-family="monospace">thinkboard • now</text>
</g>
<rect x="96" y="296" width="26" height="24" rx="4" fill="#211a14"/>
<rect x="98" y="298" width="22" height="20" rx="3" fill="#2e2318"/>
<ellipse cx="109" cy="292" rx="7" ry="15" fill="#1a5c28" transform="rotate(-18,109,292)"/>
<ellipse cx="115" cy="294" rx="6" ry="13" fill="#1f7030" transform="rotate(12,115,294)"/>
<ellipse cx="103" cy="293" rx="5" ry="12" fill="#1a5c28" transform="rotate(-28,103,293)"/>
<text x="50"  y="185" fill="#3a5070" font-size="12" font-family="monospace" opacity="0.3">&lt;/&gt;</text>
<text x="614" y="200" fill="#3a5040" font-size="12" font-family="monospace" opacity="0.3">{}</text>
<text x="622" y="270" fill="#4a3870" font-size="11" font-family="monospace" opacity="0.25">()</text>
<text x="46"  y="270" fill="#5a4820" font-size="11" font-family="monospace" opacity="0.25">=&gt;</text>
<text x="340" y="408" fill="#1e2248" font-size="11" font-family="monospace" text-anchor="middle">niteboy17</text>
</svg>
